<svg xmlns="http://www.w3.org/2000/svg" xmlns:xlink="http://www.w3.org/1999/xlink" width="500" zoomAndPan="magnify" viewBox="0 0 375 374.999991" height="500" preserveAspectRatio="xMidYMid meet" version="1.2"><defs><clipPath id="be3e5b7d63"><path d="M 74.148438 38 L 300.648438 38 L 300.648438 366.75 L 74.148438 366.75 Z M 74.148438 38 "/></clipPath><clipPath id="95c2891584"><path d="M 102.699219 58.414062 L 272.300781 58.414062 L 272.300781 228.015625 L 102.699219 228.015625 Z M 102.699219 58.414062 "/></clipPath><clipPath id="3c9effbb5a"><path d="M 187.5 58.414062 C 140.667969 58.414062 102.699219 96.382812 102.699219 143.214844 C 102.699219 190.050781 140.667969 228.015625 187.5 228.015625 C 234.332031 228.015625 272.300781 190.050781 272.300781 143.214844 C 272.300781 96.382812 234.332031 58.414062 187.5 58.414062 Z M 187.5 58.414062 "/></clipPath><clipPath id="43caf38e07"><path d="M 127.25 91 L 248 91 L 248 200.457031 L 127.25 200.457031 Z M 127.25 91 "/></clipPath><clipPath id="a81dd0b6b8"><path d="M 127.25 91 L 248 91 L 248 130 L 127.25 130 Z M 127.25 91 "/></clipPath><clipPath id="38c9737dc7"><path d="M 143 85.707031 L 155 85.707031 L 155 105 L 143 105 Z M 143 85.707031 "/></clipPath><clipPath id="b01c08a830"><path d="M 181 85.707031 L 193 85.707031 L 193 105 L 181 105 Z M 181 85.707031 "/></clipPath><clipPath id="8b83e54a93"><path d="M 220 85.707031 L 232 85.707031 L 232 105 L 220 105 Z M 220 85.707031 "/></clipPath></defs><g id="fc4f6a2967"><g clip-rule="nonzero" clip-path="url(#be3e5b7d63)"><path style=" stroke:none;fill-rule:nonzero;fill:#ffffff;fill-opacity:1;" d="M 74.246094 152.71875 C 74.246094 216.886719 187.398438 366.6875 187.398438 366.6875 C 187.398438 366.6875 300.550781 216.886719 300.550781 152.71875 C 297.992188 0 76.820312 -0.0273438 74.246094 152.71875 Z M 187.398438 210.140625 C 153.148438 210.140625 125.378906 182.316406 125.378906 148 C 125.378906 113.683594 153.148438 85.859375 187.398438 85.859375 C 221.652344 85.859375 249.421875 113.683594 249.421875 148 C 249.421875 182.316406 221.652344 210.140625 187.398438 210.140625 Z M 187.398438 210.140625 "/></g><g clip-rule="nonzero" clip-path="url(#95c2891584)"><g clip-rule="nonzero" clip-path="url(#3c9effbb5a)"><path style=" stroke:none;fill-rule:nonzero;fill:#000000;fill-opacity:1;" d="M 102.699219 58.414062 L 272.300781 58.414062 L 272.300781 228.015625 L 102.699219 228.015625 Z M 102.699219 58.414062 "/></g></g><g clip-rule="nonzero" clip-path="url(#43caf38e07)"><path style=" stroke:none;fill-rule:evenodd;fill:#ffffff;fill-opacity:1;" d="M 127.25 107.5625 C 127.25 98.511719 134.589844 91.171875 143.644531 91.171875 L 231.070312 91.171875 C 240.121094 91.171875 247.460938 98.511719 247.460938 107.5625 L 247.460938 184.0625 C 247.460938 193.113281 240.121094 200.453125 231.070312 200.453125 L 143.644531 200.453125 C 134.589844 200.453125 127.25 193.113281 127.25 184.0625 Z M 143.644531 102.101562 C 140.625 102.101562 138.179688 104.546875 138.179688 107.5625 L 138.179688 184.0625 C 138.179688 187.078125 140.625 189.523438 143.644531 189.523438 L 231.070312 189.523438 C 234.085938 189.523438 236.53125 187.078125 236.53125 184.0625 L 236.53125 107.5625 C 236.53125 104.546875 234.085938 102.101562 231.070312 102.101562 Z M 143.644531 102.101562 "/></g><g clip-rule="nonzero" clip-path="url(#a81dd0b6b8)"><path style=" stroke:none;fill-rule:evenodd;fill:#ffffff;fill-opacity:1;" d="M 127.25 107.5625 C 127.25 98.511719 134.589844 91.171875 143.644531 91.171875 L 231.070312 91.171875 C 240.121094 91.171875 247.460938 98.511719 247.460938 107.5625 L 247.460938 123.957031 C 247.460938 126.972656 245.015625 129.421875 241.996094 129.421875 L 132.714844 129.421875 C 129.699219 129.421875 127.25 126.972656 127.25 123.957031 Z M 143.644531 102.101562 C 140.625 102.101562 138.179688 104.546875 138.179688 107.5625 L 138.179688 118.492188 L 236.53125 118.492188 L 236.53125 107.5625 C 236.53125 104.546875 234.085938 102.101562 231.070312 102.101562 Z M 143.644531 102.101562 "/></g><g clip-rule="nonzero" clip-path="url(#38c9737dc7)"><path style=" stroke:none;fill-rule:evenodd;fill:#ffffff;fill-opacity:1;" d="M 143.644531 85.707031 L 154.570312 85.707031 L 154.570312 104.832031 L 143.644531 104.832031 Z M 143.644531 85.707031 "/></g><g clip-rule="nonzero" clip-path="url(#b01c08a830)"><path style=" stroke:none;fill-rule:evenodd;fill:#ffffff;fill-opacity:1;" d="M 181.890625 85.707031 L 192.820312 85.707031 L 192.820312 104.832031 L 181.890625 104.832031 Z M 181.890625 85.707031 "/></g><g clip-rule="nonzero" clip-path="url(#8b83e54a93)"><path style=" stroke:none;fill-rule:evenodd;fill:#ffffff;fill-opacity:1;" d="M 220.140625 85.707031 L 231.070312 85.707031 L 231.070312 104.832031 L 220.140625 104.832031 Z M 220.140625 85.707031 "/></g><path style=" stroke:none;fill-rule:evenodd;fill:#ffffff;fill-opacity:1;" d="M 151.839844 140.347656 L 162.769531 140.347656 L 162.769531 151.277344 L 151.839844 151.277344 Z M 151.839844 140.347656 "/><path style=" stroke:none;fill-rule:evenodd;fill:#ffffff;fill-opacity:1;" d="M 151.839844 162.203125 L 162.769531 162.203125 L 162.769531 173.132812 L 151.839844 173.132812 Z M 151.839844 162.203125 "/><path style=" stroke:none;fill-rule:evenodd;fill:#ffffff;fill-opacity:1;" d="M 181.890625 140.347656 L 192.820312 140.347656 L 192.820312 151.277344 L 181.890625 151.277344 Z M 181.890625 140.347656 "/><path style=" stroke:none;fill-rule:evenodd;fill:#ffffff;fill-opacity:1;" d="M 181.890625 162.203125 L 192.820312 162.203125 L 192.820312 173.132812 L 181.890625 173.132812 Z M 181.890625 162.203125 "/><path style=" stroke:none;fill-rule:evenodd;fill:#ffffff;fill-opacity:1;" d="M 211.945312 140.347656 L 222.871094 140.347656 L 222.871094 151.277344 L 211.945312 151.277344 Z M 211.945312 140.347656 "/><path style=" stroke:none;fill-rule:evenodd;fill:#ffffff;fill-opacity:1;" d="M 211.945312 162.203125 L 222.871094 162.203125 L 222.871094 173.132812 L 211.945312 173.132812 Z M 211.945312 162.203125 "/></g></svg>