<svg xmlns="http://www.w3.org/2000/svg" xmlns:xlink="http://www.w3.org/1999/xlink" width="500" zoomAndPan="magnify" viewBox="0 0 375 374.999991" height="500" preserveAspectRatio="xMidYMid meet" version="1.2"><defs><clipPath id="352b46c881"><path d="M 74.148438 25 L 300.648438 25 L 300.648438 354.511719 L 74.148438 354.511719 Z M 74.148438 25 "/></clipPath><clipPath id="99c80076f9"><path d="M 102.699219 46.175781 L 272.300781 46.175781 L 272.300781 215.777344 L 102.699219 215.777344 Z M 102.699219 46.175781 "/></clipPath><clipPath id="3b76085d19"><path d="M 187.5 46.175781 C 140.667969 46.175781 102.699219 84.144531 102.699219 130.976562 C 102.699219 177.8125 140.667969 215.777344 187.5 215.777344 C 234.332031 215.777344 272.300781 177.8125 272.300781 130.976562 C 272.300781 84.144531 234.332031 46.175781 187.5 46.175781 Z M 187.5 46.175781 "/></clipPath><clipPath id="1f0c7621de"><path d="M 112.5 55.976562 L 262.5 55.976562 L 262.5 205.976562 L 112.5 205.976562 Z M 112.5 55.976562 "/></clipPath></defs><g id="535868ba70"><g clip-rule="nonzero" clip-path="url(#352b46c881)"><path style=" stroke:none;fill-rule:nonzero;fill:#ffffff;fill-opacity:1;" d="M 74.246094 140.492188 C 74.246094 204.660156 187.398438 354.460938 187.398438 354.460938 C 187.398438 354.460938 300.550781 204.660156 300.550781 140.492188 C 297.992188 -12.226562 76.820312 -12.253906 74.246094 140.492188 Z M 187.398438 197.914062 C 153.148438 197.914062 125.378906 170.089844 125.378906 135.773438 C 125.378906 101.457031 153.148438 73.632812 187.398438 73.632812 C 221.652344 73.632812 249.421875 101.457031 249.421875 135.773438 C 249.421875 170.089844 221.652344 197.914062 187.398438 197.914062 Z M 187.398438 197.914062 "/></g><g clip-rule="nonzero" clip-path="url(#99c80076f9)"><g clip-rule="nonzero" clip-path="url(#3b76085d19)"><path style=" stroke:none;fill-rule:nonzero;fill:#ffffff;fill-opacity:1;" d="M 102.699219 46.175781 L 272.300781 46.175781 L 272.300781 215.777344 L 102.699219 215.777344 Z M 102.699219 46.175781 "/></g></g><path style=" stroke:none;fill-rule:nonzero;fill:#000000;fill-opacity:1;" d="M 218.585938 91.503906 L 211.183594 91.503906 L 211.183594 87.558594 C 211.183594 87.035156 211.085938 86.53125 210.882812 86.046875 C 210.683594 85.5625 210.398438 85.136719 210.027344 84.765625 C 209.65625 84.394531 209.230469 84.109375 208.746094 83.910156 C 208.265625 83.710938 207.761719 83.609375 207.238281 83.609375 C 206.714844 83.609375 206.210938 83.710938 205.726562 83.910156 C 205.242188 84.109375 204.816406 84.394531 204.445312 84.765625 C 204.074219 85.136719 203.789062 85.5625 203.589844 86.046875 C 203.390625 86.53125 203.289062 87.035156 203.289062 87.558594 L 203.289062 91.503906 L 191.449219 91.503906 L 191.449219 87.558594 C 191.449219 87.035156 191.347656 86.53125 191.148438 86.046875 C 190.945312 85.5625 190.660156 85.136719 190.292969 84.765625 C 189.921875 84.394531 189.496094 84.109375 189.011719 83.910156 C 188.527344 83.710938 188.023438 83.609375 187.5 83.609375 C 186.976562 83.609375 186.472656 83.710938 185.988281 83.910156 C 185.503906 84.109375 185.078125 84.394531 184.707031 84.765625 C 184.339844 85.136719 184.054688 85.5625 183.851562 86.046875 C 183.652344 86.53125 183.550781 87.035156 183.550781 87.558594 L 183.550781 91.503906 L 171.710938 91.503906 L 171.710938 87.558594 C 171.710938 87.035156 171.609375 86.53125 171.410156 86.046875 C 171.210938 85.5625 170.925781 85.136719 170.554688 84.765625 C 170.183594 84.394531 169.757812 84.109375 169.273438 83.910156 C 168.789062 83.710938 168.285156 83.609375 167.761719 83.609375 C 167.238281 83.609375 166.734375 83.710938 166.253906 83.910156 C 165.769531 84.109375 165.34375 84.394531 164.972656 84.765625 C 164.601562 85.136719 164.316406 85.5625 164.117188 86.046875 C 163.914062 86.53125 163.816406 87.035156 163.816406 87.558594 L 163.816406 91.503906 L 156.414062 91.503906 C 155.605469 91.503906 154.804688 91.585938 154.007812 91.742188 C 153.214844 91.902344 152.445312 92.136719 151.695312 92.449219 C 150.949219 92.757812 150.238281 93.136719 149.566406 93.585938 C 148.890625 94.039062 148.269531 94.550781 147.695312 95.121094 C 147.125 95.695312 146.613281 96.316406 146.164062 96.988281 C 145.710938 97.664062 145.332031 98.375 145.023438 99.121094 C 144.710938 99.871094 144.476562 100.640625 144.320312 101.433594 C 144.160156 102.226562 144.078125 103.03125 144.078125 103.839844 L 144.078125 158.117188 C 144.078125 158.925781 144.160156 159.726562 144.320312 160.519531 C 144.476562 161.316406 144.710938 162.085938 145.023438 162.835938 C 145.332031 163.582031 145.710938 164.292969 146.164062 164.964844 C 146.613281 165.636719 147.125 166.261719 147.695312 166.832031 C 148.269531 167.40625 148.890625 167.917969 149.566406 168.367188 C 150.238281 168.816406 150.949219 169.199219 151.695312 169.507812 C 152.445312 169.820312 153.214844 170.054688 154.007812 170.210938 C 154.804688 170.371094 155.605469 170.449219 156.414062 170.453125 L 218.585938 170.453125 C 219.394531 170.449219 220.195312 170.371094 220.992188 170.210938 C 221.785156 170.054688 222.554688 169.820312 223.304688 169.507812 C 224.050781 169.199219 224.761719 168.816406 225.433594 168.367188 C 226.109375 167.917969 226.730469 167.40625 227.304688 166.832031 C 227.875 166.261719 228.386719 165.636719 228.835938 164.964844 C 229.289062 164.292969 229.667969 163.582031 229.976562 162.835938 C 230.289062 162.085938 230.523438 161.316406 230.679688 160.519531 C 230.839844 159.726562 230.921875 158.925781 230.921875 158.117188 L 230.921875 103.839844 C 230.921875 103.03125 230.839844 102.226562 230.679688 101.433594 C 230.523438 100.640625 230.289062 99.871094 229.976562 99.121094 C 229.667969 98.375 229.289062 97.664062 228.835938 96.988281 C 228.386719 96.316406 227.875 95.695312 227.304688 95.121094 C 226.730469 94.550781 226.109375 94.039062 225.433594 93.585938 C 224.761719 93.136719 224.050781 92.757812 223.304688 92.449219 C 222.554688 92.136719 221.785156 91.902344 220.992188 91.742188 C 220.195312 91.585938 219.394531 91.503906 218.585938 91.503906 Z M 223.027344 158.117188 C 223.027344 158.40625 222.996094 158.695312 222.941406 158.980469 C 222.882812 159.265625 222.796875 159.546875 222.6875 159.8125 C 222.574219 160.082031 222.4375 160.339844 222.277344 160.582031 C 222.113281 160.824219 221.929688 161.046875 221.722656 161.253906 C 221.515625 161.460938 221.292969 161.644531 221.050781 161.804688 C 220.808594 161.96875 220.554688 162.105469 220.285156 162.214844 C 220.015625 162.328125 219.738281 162.414062 219.453125 162.46875 C 219.164062 162.527344 218.878906 162.554688 218.585938 162.558594 L 156.414062 162.558594 C 156.121094 162.554688 155.835938 162.527344 155.546875 162.46875 C 155.261719 162.414062 154.984375 162.328125 154.714844 162.214844 C 154.445312 162.105469 154.191406 161.96875 153.949219 161.804688 C 153.707031 161.644531 153.484375 161.460938 153.277344 161.253906 C 153.070312 161.046875 152.886719 160.824219 152.722656 160.582031 C 152.5625 160.339844 152.425781 160.082031 152.3125 159.8125 C 152.203125 159.546875 152.117188 159.265625 152.058594 158.980469 C 152.003906 158.695312 151.972656 158.40625 151.972656 158.117188 L 151.972656 123.082031 L 223.027344 123.082031 Z M 223.027344 115.1875 L 151.972656 115.1875 L 151.972656 103.839844 C 151.972656 103.546875 152.003906 103.257812 152.058594 102.972656 C 152.117188 102.6875 152.203125 102.410156 152.3125 102.140625 C 152.425781 101.871094 152.5625 101.617188 152.722656 101.375 C 152.886719 101.132812 153.070312 100.90625 153.277344 100.703125 C 153.484375 100.496094 153.707031 100.3125 153.949219 100.148438 C 154.191406 99.988281 154.445312 99.851562 154.714844 99.738281 C 154.984375 99.628906 155.261719 99.542969 155.546875 99.484375 C 155.835938 99.429688 156.121094 99.398438 156.414062 99.398438 L 163.816406 99.398438 L 163.816406 103.347656 C 163.816406 103.871094 163.914062 104.375 164.117188 104.855469 C 164.316406 105.339844 164.601562 105.765625 164.972656 106.136719 C 165.34375 106.507812 165.769531 106.792969 166.253906 106.992188 C 166.734375 107.195312 167.238281 107.292969 167.761719 107.292969 C 168.285156 107.292969 168.789062 107.195312 169.273438 106.992188 C 169.757812 106.792969 170.183594 106.507812 170.554688 106.136719 C 170.925781 105.765625 171.210938 105.339844 171.410156 104.855469 C 171.609375 104.375 171.710938 103.871094 171.710938 103.347656 L 171.710938 99.398438 L 183.550781 99.398438 L 183.550781 103.347656 C 183.550781 103.871094 183.652344 104.375 183.851562 104.855469 C 184.054688 105.339844 184.339844 105.765625 184.707031 106.136719 C 185.078125 106.507812 185.503906 106.792969 185.988281 106.992188 C 186.472656 107.195312 186.976562 107.292969 187.5 107.292969 C 188.023438 107.292969 188.527344 107.195312 189.011719 106.992188 C 189.496094 106.792969 189.921875 106.507812 190.292969 106.136719 C 190.660156 105.765625 190.945312 105.339844 191.148438 104.855469 C 191.347656 104.375 191.449219 103.871094 191.449219 103.347656 L 191.449219 99.398438 L 203.289062 99.398438 L 203.289062 103.347656 C 203.289062 103.871094 203.390625 104.375 203.589844 104.855469 C 203.789062 105.339844 204.074219 105.765625 204.445312 106.136719 C 204.816406 106.507812 205.242188 106.792969 205.726562 106.992188 C 206.210938 107.195312 206.714844 107.292969 207.238281 107.292969 C 207.761719 107.292969 208.265625 107.195312 208.746094 106.992188 C 209.230469 106.792969 209.65625 106.507812 210.027344 106.136719 C 210.398438 105.765625 210.683594 105.339844 210.882812 104.855469 C 211.085938 104.375 211.183594 103.871094 211.183594 103.347656 L 211.183594 99.398438 L 218.585938 99.398438 C 218.878906 99.398438 219.164062 99.429688 219.453125 99.484375 C 219.738281 99.542969 220.015625 99.628906 220.285156 99.738281 C 220.554688 99.851562 220.808594 99.988281 221.050781 100.148438 C 221.292969 100.3125 221.515625 100.496094 221.722656 100.703125 C 221.929688 100.90625 222.113281 101.132812 222.277344 101.375 C 222.4375 101.617188 222.574219 101.871094 222.6875 102.140625 C 222.796875 102.410156 222.882812 102.6875 222.941406 102.972656 C 222.996094 103.257812 223.027344 103.546875 223.027344 103.839844 Z M 223.027344 115.1875 "/><g clip-rule="nonzero" clip-path="url(#1f0c7621de)"><path style=" stroke:none;fill-rule:nonzero;fill:#000000;fill-opacity:1;" d="M 187.5 55.976562 C 186.273438 55.976562 185.046875 56.007812 183.820312 56.066406 C 182.59375 56.128906 181.371094 56.21875 180.148438 56.339844 C 178.925781 56.460938 177.710938 56.609375 176.496094 56.789062 C 175.28125 56.96875 174.070312 57.179688 172.867188 57.417969 C 171.664062 57.660156 170.46875 57.925781 169.277344 58.226562 C 168.085938 58.523438 166.902344 58.851562 165.730469 59.207031 C 164.554688 59.5625 163.390625 59.949219 162.234375 60.363281 C 161.078125 60.777344 159.933594 61.21875 158.796875 61.6875 C 157.664062 62.15625 156.542969 62.652344 155.433594 63.179688 C 154.324219 63.703125 153.226562 64.253906 152.144531 64.832031 C 151.0625 65.414062 149.996094 66.015625 148.941406 66.648438 C 147.890625 67.277344 146.851562 67.9375 145.832031 68.617188 C 144.8125 69.300781 143.808594 70.007812 142.824219 70.738281 C 141.835938 71.46875 140.871094 72.222656 139.921875 73.003906 C 138.972656 73.78125 138.042969 74.582031 137.132812 75.40625 C 136.222656 76.230469 135.335938 77.078125 134.46875 77.945312 C 133.597656 78.8125 132.753906 79.703125 131.929688 80.609375 C 131.105469 81.519531 130.304688 82.449219 129.523438 83.398438 C 128.746094 84.347656 127.992188 85.3125 127.257812 86.300781 C 126.527344 87.285156 125.820312 88.289062 125.140625 89.308594 C 124.457031 90.332031 123.800781 91.367188 123.171875 92.421875 C 122.539062 93.472656 121.933594 94.539062 121.355469 95.621094 C 120.777344 96.707031 120.226562 97.800781 119.699219 98.910156 C 119.175781 100.019531 118.679688 101.140625 118.210938 102.277344 C 117.738281 103.410156 117.296875 104.554688 116.882812 105.710938 C 116.46875 106.867188 116.085938 108.03125 115.730469 109.207031 C 115.375 110.382812 115.046875 111.5625 114.746094 112.753906 C 114.449219 113.945312 114.179688 115.140625 113.941406 116.347656 C 113.703125 117.550781 113.492188 118.757812 113.3125 119.972656 C 113.132812 121.1875 112.980469 122.40625 112.859375 123.625 C 112.742188 124.847656 112.652344 126.070312 112.589844 127.296875 C 112.53125 128.523438 112.5 129.75 112.5 130.976562 C 112.5 132.207031 112.53125 133.433594 112.589844 134.65625 C 112.652344 135.882812 112.742188 137.109375 112.859375 138.328125 C 112.980469 139.550781 113.132812 140.769531 113.3125 141.984375 C 113.492188 143.195312 113.703125 144.40625 113.941406 145.609375 C 114.179688 146.8125 114.449219 148.011719 114.746094 149.203125 C 115.046875 150.390625 115.375 151.574219 115.730469 152.75 C 116.085938 153.921875 116.46875 155.089844 116.882812 156.246094 C 117.296875 157.398438 117.738281 158.546875 118.210938 159.679688 C 118.679688 160.8125 119.175781 161.933594 119.699219 163.042969 C 120.226562 164.152344 120.777344 165.25 121.355469 166.332031 C 121.933594 167.414062 122.539062 168.484375 123.171875 169.535156 C 123.800781 170.589844 124.457031 171.625 125.140625 172.644531 C 125.820312 173.667969 126.527344 174.667969 127.257812 175.65625 C 127.992188 176.640625 128.746094 177.609375 129.523438 178.558594 C 130.304688 179.507812 131.105469 180.433594 131.929688 181.34375 C 132.753906 182.253906 133.597656 183.144531 134.46875 184.011719 C 135.335938 184.878906 136.222656 185.726562 137.132812 186.550781 C 138.042969 187.375 138.972656 188.175781 139.921875 188.953125 C 140.871094 189.730469 141.835938 190.488281 142.824219 191.21875 C 143.808594 191.949219 144.8125 192.65625 145.832031 193.339844 C 146.851562 194.019531 147.890625 194.675781 148.941406 195.308594 C 149.996094 195.9375 151.0625 196.542969 152.144531 197.121094 C 153.226562 197.699219 154.324219 198.253906 155.433594 198.777344 C 156.542969 199.300781 157.664062 199.800781 158.796875 200.269531 C 159.933594 200.738281 161.078125 201.179688 162.234375 201.59375 C 163.390625 202.007812 164.554688 202.390625 165.730469 202.75 C 166.902344 203.105469 168.085938 203.433594 169.277344 203.730469 C 170.46875 204.027344 171.664062 204.296875 172.867188 204.535156 C 174.070312 204.777344 175.28125 204.984375 176.496094 205.164062 C 177.710938 205.347656 178.925781 205.496094 180.148438 205.617188 C 181.371094 205.738281 182.59375 205.828125 183.820312 205.886719 C 185.046875 205.949219 186.273438 205.976562 187.5 205.976562 C 188.726562 205.976562 189.953125 205.949219 191.179688 205.886719 C 192.40625 205.828125 193.628906 205.738281 194.851562 205.617188 C 196.074219 205.496094 197.289062 205.347656 198.503906 205.164062 C 199.71875 204.984375 200.929688 204.777344 202.132812 204.535156 C 203.335938 204.296875 204.53125 204.027344 205.722656 203.730469 C 206.914062 203.433594 208.097656 203.105469 209.269531 202.75 C 210.445312 202.390625 211.609375 202.007812 212.765625 201.59375 C 213.921875 201.179688 215.066406 200.738281 216.203125 200.269531 C 217.335938 199.800781 218.457031 199.300781 219.566406 198.777344 C 220.675781 198.253906 221.773438 197.699219 222.855469 197.121094 C 223.9375 196.542969 225.003906 195.9375 226.058594 195.308594 C 227.109375 194.675781 228.148438 194.019531 229.167969 193.339844 C 230.1875 192.65625 231.191406 191.949219 232.175781 191.21875 C 233.164062 190.488281 234.128906 189.730469 235.078125 188.953125 C 236.027344 188.175781 236.957031 187.375 237.867188 186.550781 C 238.777344 185.726562 239.664062 184.878906 240.53125 184.011719 C 241.402344 183.144531 242.246094 182.253906 243.070312 181.34375 C 243.894531 180.433594 244.695312 179.507812 245.476562 178.558594 C 246.253906 177.609375 247.007812 176.640625 247.742188 175.65625 C 248.472656 174.667969 249.179688 173.667969 249.859375 172.644531 C 250.542969 171.625 251.199219 170.589844 251.828125 169.535156 C 252.460938 168.484375 253.066406 167.414062 253.644531 166.332031 C 254.222656 165.25 254.773438 164.152344 255.300781 163.042969 C 255.824219 161.933594 256.320312 160.8125 256.789062 159.679688 C 257.261719 158.546875 257.703125 157.398438 258.117188 156.246094 C 258.527344 155.089844 258.914062 153.921875 259.269531 152.75 C 259.625 151.574219 259.953125 150.390625 260.253906 149.203125 C 260.550781 148.011719 260.820312 146.8125 261.058594 145.609375 C 261.296875 144.40625 261.507812 143.195312 261.6875 141.984375 C 261.867188 140.769531 262.019531 139.550781 262.140625 138.328125 C 262.257812 137.109375 262.347656 135.882812 262.410156 134.65625 C 262.46875 133.433594 262.5 132.207031 262.5 130.976562 C 262.5 129.75 262.46875 128.523438 262.40625 127.300781 C 262.34375 126.074219 262.253906 124.851562 262.132812 123.628906 C 262.011719 122.40625 261.859375 121.191406 261.675781 119.976562 C 261.496094 118.761719 261.285156 117.554688 261.046875 116.351562 C 260.804688 115.148438 260.535156 113.953125 260.234375 112.761719 C 259.9375 111.570312 259.609375 110.390625 259.25 109.214844 C 258.894531 108.042969 258.507812 106.878906 258.09375 105.722656 C 257.679688 104.566406 257.238281 103.421875 256.769531 102.289062 C 256.296875 101.15625 255.800781 100.035156 255.277344 98.925781 C 254.75 97.816406 254.199219 96.722656 253.621094 95.640625 C 253.039062 94.558594 252.4375 93.492188 251.804688 92.4375 C 251.171875 91.386719 250.515625 90.351562 249.835938 89.328125 C 249.152344 88.308594 248.445312 87.308594 247.714844 86.320312 C 246.984375 85.335938 246.230469 84.367188 245.449219 83.421875 C 244.671875 82.472656 243.871094 81.542969 243.046875 80.632812 C 242.222656 79.726562 241.375 78.835938 240.507812 77.96875 C 239.640625 77.101562 238.753906 76.253906 237.84375 75.429688 C 236.933594 74.605469 236.003906 73.804688 235.058594 73.027344 C 234.109375 72.25 233.140625 71.492188 232.15625 70.761719 C 231.171875 70.03125 230.167969 69.324219 229.148438 68.644531 C 228.128906 67.960938 227.09375 67.304688 226.039062 66.671875 C 224.988281 66.042969 223.921875 65.4375 222.839844 64.859375 C 221.757812 64.277344 220.660156 63.726562 219.550781 63.203125 C 218.441406 62.675781 217.320312 62.179688 216.1875 61.707031 C 215.054688 61.238281 213.910156 60.796875 212.753906 60.382812 C 211.601562 59.96875 210.4375 59.582031 209.261719 59.226562 C 208.089844 58.867188 206.90625 58.539062 205.714844 58.242188 C 204.527344 57.941406 203.328125 57.671875 202.125 57.433594 C 200.921875 57.191406 199.714844 56.980469 198.5 56.800781 C 197.285156 56.621094 196.070312 56.46875 194.847656 56.347656 C 193.628906 56.226562 192.40625 56.132812 191.179688 56.070312 C 189.953125 56.011719 188.726562 55.980469 187.5 55.976562 Z M 187.5 198.082031 C 186.402344 198.082031 185.304688 198.054688 184.207031 198.003906 C 183.109375 197.949219 182.015625 197.867188 180.921875 197.761719 C 179.828125 197.652344 178.738281 197.519531 177.652344 197.355469 C 176.566406 197.195312 175.484375 197.007812 174.410156 196.792969 C 173.332031 196.578125 172.261719 196.339844 171.195312 196.070312 C 170.128906 195.804688 169.070312 195.511719 168.019531 195.195312 C 166.96875 194.875 165.925781 194.53125 164.894531 194.160156 C 163.859375 193.789062 162.835938 193.394531 161.820312 192.976562 C 160.804688 192.554688 159.800781 192.109375 158.808594 191.640625 C 157.816406 191.171875 156.835938 190.675781 155.867188 190.160156 C 154.898438 189.640625 153.941406 189.101562 153 188.535156 C 152.058594 187.972656 151.132812 187.382812 150.21875 186.773438 C 149.304688 186.164062 148.40625 185.53125 147.527344 184.878906 C 146.644531 184.222656 145.777344 183.546875 144.929688 182.851562 C 144.078125 182.152344 143.25 181.4375 142.433594 180.699219 C 141.621094 179.960938 140.824219 179.203125 140.050781 178.429688 C 139.273438 177.652344 138.515625 176.855469 137.777344 176.042969 C 137.039062 175.230469 136.324219 174.398438 135.625 173.550781 C 134.929688 172.699219 134.253906 171.835938 133.601562 170.953125 C 132.945312 170.070312 132.3125 169.171875 131.703125 168.257812 C 131.09375 167.347656 130.507812 166.417969 129.941406 165.476562 C 129.378906 164.535156 128.835938 163.578125 128.320312 162.609375 C 127.800781 161.640625 127.308594 160.660156 126.835938 159.667969 C 126.367188 158.675781 125.921875 157.671875 125.503906 156.65625 C 125.082031 155.644531 124.6875 154.617188 124.316406 153.585938 C 123.949219 152.550781 123.601562 151.507812 123.285156 150.457031 C 122.964844 149.40625 122.671875 148.347656 122.40625 147.28125 C 122.140625 146.21875 121.898438 145.144531 121.683594 144.070312 C 121.46875 142.992188 121.28125 141.910156 121.121094 140.824219 C 120.960938 139.738281 120.824219 138.648438 120.71875 137.554688 C 120.609375 136.460938 120.53125 135.367188 120.476562 134.269531 C 120.421875 133.171875 120.394531 132.074219 120.394531 130.976562 C 120.394531 129.878906 120.421875 128.78125 120.476562 127.683594 C 120.53125 126.589844 120.609375 125.492188 120.71875 124.398438 C 120.824219 123.308594 120.960938 122.21875 121.121094 121.132812 C 121.28125 120.046875 121.46875 118.964844 121.683594 117.886719 C 121.898438 116.808594 122.140625 115.738281 122.40625 114.671875 C 122.671875 113.605469 122.964844 112.550781 123.285156 111.5 C 123.601562 110.445312 123.949219 109.40625 124.316406 108.371094 C 124.6875 107.335938 125.082031 106.3125 125.503906 105.296875 C 125.921875 104.28125 126.367188 103.28125 126.835938 102.285156 C 127.308594 101.292969 127.800781 100.3125 128.320312 99.34375 C 128.835938 98.375 129.378906 97.421875 129.941406 96.480469 C 130.507812 95.535156 131.09375 94.609375 131.703125 93.695312 C 132.3125 92.78125 132.945312 91.886719 133.601562 91.003906 C 134.253906 90.121094 134.929688 89.253906 135.625 88.40625 C 136.324219 87.558594 137.039062 86.726562 137.777344 85.914062 C 138.515625 85.097656 139.273438 84.304688 140.050781 83.527344 C 140.824219 82.75 141.621094 81.992188 142.433594 81.257812 C 143.25 80.519531 144.078125 79.800781 144.929688 79.105469 C 145.777344 78.40625 146.644531 77.734375 147.527344 77.078125 C 148.40625 76.425781 149.304688 75.792969 150.21875 75.183594 C 151.132812 74.570312 152.058594 73.984375 153 73.417969 C 153.941406 72.855469 154.898438 72.3125 155.867188 71.796875 C 156.835938 71.277344 157.816406 70.785156 158.808594 70.316406 C 159.800781 69.847656 160.804688 69.402344 161.820312 68.980469 C 162.835938 68.558594 163.859375 68.164062 164.894531 67.796875 C 165.925781 67.425781 166.96875 67.082031 168.019531 66.761719 C 169.070312 66.441406 170.128906 66.152344 171.195312 65.882812 C 172.261719 65.617188 173.332031 65.375 174.410156 65.160156 C 175.484375 64.949219 176.566406 64.761719 177.652344 64.597656 C 178.738281 64.4375 179.828125 64.304688 180.921875 64.195312 C 182.015625 64.089844 183.109375 64.007812 184.207031 63.953125 C 185.304688 63.898438 186.402344 63.871094 187.5 63.871094 C 188.597656 63.871094 189.695312 63.898438 190.792969 63.953125 C 191.890625 64.007812 192.984375 64.089844 194.078125 64.195312 C 195.171875 64.304688 196.261719 64.4375 197.347656 64.597656 C 198.433594 64.761719 199.515625 64.949219 200.589844 65.160156 C 201.667969 65.375 202.738281 65.617188 203.804688 65.882812 C 204.871094 66.152344 205.929688 66.441406 206.980469 66.761719 C 208.03125 67.082031 209.074219 67.425781 210.105469 67.796875 C 211.140625 68.164062 212.164062 68.558594 213.179688 68.980469 C 214.195312 69.402344 215.199219 69.847656 216.191406 70.316406 C 217.183594 70.785156 218.164062 71.277344 219.132812 71.796875 C 220.101562 72.3125 221.058594 72.855469 222 73.417969 C 222.941406 73.984375 223.867188 74.570312 224.78125 75.183594 C 225.695312 75.792969 226.59375 76.425781 227.472656 77.078125 C 228.355469 77.734375 229.222656 78.40625 230.070312 79.105469 C 230.921875 79.800781 231.75 80.519531 232.566406 81.257812 C 233.378906 81.992188 234.175781 82.75 234.949219 83.527344 C 235.726562 84.304688 236.484375 85.097656 237.222656 85.914062 C 237.960938 86.726562 238.675781 87.558594 239.375 88.40625 C 240.070312 89.253906 240.746094 90.121094 241.398438 91.003906 C 242.054688 91.886719 242.6875 92.78125 243.296875 93.695312 C 243.90625 94.609375 244.492188 95.535156 245.058594 96.480469 C 245.621094 97.421875 246.164062 98.375 246.679688 99.34375 C 247.199219 100.3125 247.691406 101.292969 248.164062 102.285156 C 248.632812 103.28125 249.078125 104.28125 249.496094 105.296875 C 249.917969 106.3125 250.3125 107.335938 250.683594 108.371094 C 251.050781 109.40625 251.398438 110.445312 251.714844 111.5 C 252.035156 112.550781 252.328125 113.605469 252.59375 114.671875 C 252.859375 115.738281 253.101562 116.808594 253.316406 117.886719 C 253.53125 118.964844 253.71875 120.046875 253.878906 121.132812 C 254.039062 122.21875 254.175781 123.308594 254.28125 124.398438 C 254.390625 125.492188 254.46875 126.589844 254.523438 127.683594 C 254.578125 128.78125 254.605469 129.878906 254.605469 130.976562 C 254.605469 132.074219 254.574219 133.171875 254.519531 134.269531 C 254.464844 135.367188 254.382812 136.460938 254.273438 137.554688 C 254.167969 138.644531 254.03125 139.734375 253.871094 140.820312 C 253.707031 141.90625 253.519531 142.988281 253.304688 144.0625 C 253.089844 145.140625 252.847656 146.210938 252.578125 147.277344 C 252.3125 148.339844 252.019531 149.398438 251.699219 150.449219 C 251.378906 151.5 251.035156 152.542969 250.664062 153.574219 C 250.292969 154.609375 249.898438 155.632812 249.476562 156.644531 C 249.054688 157.660156 248.609375 158.664062 248.140625 159.65625 C 247.671875 160.648438 247.175781 161.628906 246.660156 162.597656 C 246.140625 163.5625 245.601562 164.519531 245.035156 165.460938 C 244.46875 166.402344 243.882812 167.328125 243.273438 168.242188 C 242.664062 169.15625 242.03125 170.050781 241.375 170.933594 C 240.722656 171.816406 240.046875 172.679688 239.351562 173.527344 C 238.652344 174.378906 237.9375 175.207031 237.199219 176.023438 C 236.460938 176.835938 235.703125 177.628906 234.929688 178.40625 C 234.152344 179.183594 233.359375 179.941406 232.542969 180.675781 C 231.730469 181.414062 230.898438 182.132812 230.050781 182.828125 C 229.203125 183.523438 228.335938 184.199219 227.457031 184.855469 C 226.574219 185.507812 225.675781 186.140625 224.765625 186.75 C 223.851562 187.359375 222.925781 187.949219 221.984375 188.511719 C 221.042969 189.078125 220.085938 189.621094 219.117188 190.136719 C 218.148438 190.65625 217.171875 191.148438 216.179688 191.617188 C 215.1875 192.089844 214.183594 192.535156 213.167969 192.953125 C 212.15625 193.375 211.128906 193.769531 210.097656 194.140625 C 209.0625 194.511719 208.023438 194.855469 206.972656 195.175781 C 205.921875 195.496094 204.863281 195.789062 203.796875 196.058594 C 202.734375 196.324219 201.664062 196.566406 200.585938 196.78125 C 199.507812 196.996094 198.429688 197.183594 197.34375 197.347656 C 196.257812 197.507812 195.167969 197.644531 194.074219 197.753906 C 192.984375 197.863281 191.886719 197.945312 190.792969 198 C 189.695312 198.054688 188.597656 198.082031 187.5 198.082031 Z M 187.5 198.082031 "/></g></g></svg>